<svg xmlns="http://www.w3.org/2000/svg" viewBox="0 0 62.73 32.28"><defs><style>.cls-1{opacity:0.91;}</style></defs><g id="Layer_2" data-name="Layer 2"><g id="Layer_1-2" data-name="Layer 1"><path d="M5.21,30.47a.42.42,0,0,1-.08.18,1.15,1.15,0,0,1-.15.2.75.75,0,0,1-.57.22,1,1,0,0,1-.74-.32,1.11,1.11,0,0,1-.3-.79,1.25,1.25,0,0,1,.28-.82.91.91,0,0,1,.71-.33A.86.86,0,0,1,5,29a.74.74,0,0,1,.25.52,1.78,1.78,0,0,1-.42,0H4.43l-.59,0c0,.11,0,.21,0,.31a1.28,1.28,0,0,0,.19.76.6.6,0,0,0,.53.27.53.53,0,0,0,.32-.09,1,1,0,0,0,.25-.34s0,0,.06,0S5.21,30.45,5.21,30.47Zm-.43-1c0-.39-.16-.59-.42-.59s-.44.2-.5.59Z"/><path d="M9.92,31s0,0-.08,0H9s-.06,0-.06,0,0,0,0,0h.17c.05,0,.07,0,.08,0a.67.67,0,0,0,0-.21V29.49a.82.82,0,0,0-.08-.41A.29.29,0,0,0,8.87,29a.34.34,0,0,0-.23.08.37.37,0,0,0-.16.19,4.42,4.42,0,0,0,0,.55v.93a.63.63,0,0,0,0,.18.08.08,0,0,0,.08.06H8.7s.06,0,.06,0,0,0-.08,0H7.8s-.06,0-.06,0a0,0,0,0,1,0,0H8s.08,0,.08-.05V29.46A.73.73,0,0,0,8,29.07.27.27,0,0,0,7.73,29a.44.44,0,0,0-.3.11.38.38,0,0,0-.12.29v1.39a.41.41,0,0,0,0,.17.24.24,0,0,0,.15,0h.09s0,0,0,0,0,0-.06,0h-.9s-.07,0-.07,0,0,0,.06,0a.71.71,0,0,0,.22,0,.06.06,0,0,0,0-.06V29.59a3.7,3.7,0,0,0,0-.43s-.06-.06-.14-.06H6.58s-.06,0-.06,0,0,0,0,0l.16,0A.93.93,0,0,0,7,29a.36.36,0,0,0,.19-.09s.06-.05.08-.05,0,0,0,0,0,.11,0,.27a.65.65,0,0,1,.6-.31c.3,0,.47.11.54.33a.64.64,0,0,1,.61-.33.47.47,0,0,1,.49.26,1,1,0,0,1,.07.46v1.21a.44.44,0,0,0,0,.18s.06,0,.15,0h.09S9.92,31,9.92,31Z"/><path d="M13.31,29.92a1.2,1.2,0,0,1-.28.82.85.85,0,0,1-.69.33.58.58,0,0,1-.5-.24v1.28l.05,0,.29,0s.06,0,.06,0,0,0-.06,0h-1c-.09,0-.14,0-.14,0s0-.05.06-.05h.15q.13,0,.15-.06v-2.9c0-.1,0-.14-.13-.13h-.21s0,0,0,0,0-.05.11-.05a.91.91,0,0,0,.49-.12.19.19,0,0,1,.1,0,.05.05,0,0,1,.05,0,1.84,1.84,0,0,1,0,.23.58.58,0,0,1,.52-.26.88.88,0,0,1,.7.31A1.17,1.17,0,0,1,13.31,29.92Zm-.44,0a1.76,1.76,0,0,0-.11-.65.53.53,0,0,0-.49-.38.43.43,0,0,0-.43.41c0,.15,0,.45,0,.92,0,.23,0,.37,0,.42a.22.22,0,0,0,.06.14.44.44,0,0,0,.37.21.44.44,0,0,0,.39-.22A1.65,1.65,0,0,0,12.87,29.92Z"/><path d="M15.7,31s0,0-.06,0h-.93s-.07,0-.07,0,0,0,0,0h.13c.09,0,.14,0,.14-.06s0-.15,0-.39V28a1.62,1.62,0,0,0,0-.18.09.09,0,0,0-.08,0H14.7s-.07,0-.07,0,0,0,.12,0a1.24,1.24,0,0,0,.44-.11l.1-.05h0a1.55,1.55,0,0,1,0,.43v2.93s0,0,0,0h.18C15.67,30.94,15.7,31,15.7,31Z"/><path d="M19.09,30a1.13,1.13,0,0,1-.29.8.93.93,0,0,1-.72.32,1,1,0,0,1-.75-.32A1.14,1.14,0,0,1,17,30a1.21,1.21,0,0,1,.29-.82.94.94,0,0,1,.73-.32,1,1,0,0,1,.74.32A1.17,1.17,0,0,1,19.09,30Zm-.45,0a1.77,1.77,0,0,0-.16-.84.43.43,0,0,0-.42-.22.48.48,0,0,0-.43.28,1.71,1.71,0,0,0-.15.79,1.5,1.5,0,0,0,.16.77.51.51,0,0,0,.46.28.38.38,0,0,0,.34-.17A1.63,1.63,0,0,0,18.64,29.94Z"/><path d="M22.46,28.9s0,0-.12,0a.4.4,0,0,0-.15,0,.1.1,0,0,0-.05.08l0,.09,0,.12c0,.16-.11.38-.2.68-.26.83-.48,1.48-.65,1.94-.1.27-.25.41-.43.41a.34.34,0,0,1-.2-.06.24.24,0,0,1-.07-.18.2.2,0,0,1,.06-.15.21.21,0,0,1,.16-.06.19.19,0,0,1,.19.11S21,32,21,32s.07-.08.13-.24a5,5,0,0,0,.22-.65c-.24-.63-.45-1.19-.62-1.66a2.92,2.92,0,0,0-.2-.5.42.42,0,0,0-.16,0c-.08,0-.13,0-.13-.05s0,0,.07,0h1s.06,0,.06,0-.07,0-.19,0S21,29,21,29a1.31,1.31,0,0,0,.1.3c0,.08.05.16.08.24l.09.24c0,.08.08.24.18.5l.11.28c.31-1,.47-1.5.47-1.55S22,29,22,29h-.21a0,0,0,0,1-.05,0s0,0,.06,0h.64S22.46,28.87,22.46,28.9Z"/><path d="M25.46,30.47a.38.38,0,0,1-.07.18,2,2,0,0,1-.16.2.73.73,0,0,1-.56.22,1,1,0,0,1-.75-.32,1.15,1.15,0,0,1-.29-.79,1.2,1.2,0,0,1,.28-.82.89.89,0,0,1,.71-.33.84.84,0,0,1,.58.2.7.7,0,0,1,.25.52,1.72,1.72,0,0,1-.42,0h-.34l-.59,0a1.71,1.71,0,0,0,0,.31,1.35,1.35,0,0,0,.19.76.63.63,0,0,0,.54.27.5.5,0,0,0,.31-.09,1,1,0,0,0,.26-.34.05.05,0,0,1,.05,0S25.46,30.45,25.46,30.47Zm-.43-1c0-.39-.15-.59-.42-.59s-.43.2-.5.59Z"/><path d="M28.71,30.47a.42.42,0,0,1-.08.18,1.15,1.15,0,0,1-.15.2.74.74,0,0,1-.57.22,1,1,0,0,1-.74-.32,1.11,1.11,0,0,1-.3-.79,1.21,1.21,0,0,1,.29-.82.87.87,0,0,1,.7-.33.85.85,0,0,1,.59.2.7.7,0,0,1,.25.52,1.78,1.78,0,0,1-.42,0h-.34l-.59,0a1.71,1.71,0,0,0,0,.31,1.28,1.28,0,0,0,.19.76.61.61,0,0,0,.53.27.51.51,0,0,0,.32-.09,1,1,0,0,0,.25-.34.07.07,0,0,1,.06,0S28.71,30.45,28.71,30.47Zm-.43-1c0-.39-.15-.59-.42-.59s-.43.2-.5.59Z"/><path d="M34.37,30.91s0,0-.07,0h-.15a.86.86,0,0,0-.41.09l-.08,0s0,0,0-.06v-.15a.69.69,0,0,1-.5.21.87.87,0,0,1-.69-.32,1.25,1.25,0,0,1-.26-.81,1.29,1.29,0,0,1,.26-.83.89.89,0,0,1,.71-.31.57.57,0,0,1,.5.24v-.77a1.4,1.4,0,0,0,0-.46c0-.05-.05-.07-.08-.07h-.17c-.05,0-.07,0-.07,0s0,0,.06,0h.17a1.09,1.09,0,0,0,.45-.14h0s0,0,0,.12v1.94c0,.78,0,1.19,0,1.25s.09,0,.24,0S34.37,30.89,34.37,30.91Zm-.73-1.23a1.11,1.11,0,0,0-.11-.61.41.41,0,0,0-.34-.16.48.48,0,0,0-.42.27,1.53,1.53,0,0,0-.16.74,1.94,1.94,0,0,0,.14.76.52.52,0,0,0,.18.21.35.35,0,0,0,.23.09.45.45,0,0,0,.28-.09.38.38,0,0,0,.16-.22A7.11,7.11,0,0,0,33.64,29.68Z"/><path d="M36.68,31s0,.05-.09.05h-.87l-.06,0s-.06,0-.06,0,0,0,.1,0l.21,0a.77.77,0,0,0,0-.2V29.22a.42.42,0,0,0,0-.15s0,0-.06,0h-.19s-.06,0-.06,0,0,0,.09,0a1.26,1.26,0,0,0,.56-.15l0,0a.58.58,0,0,1,0,.27v1.58a1.11,1.11,0,0,0,0,.23,0,0,0,0,0,0,0l.22,0S36.68,31,36.68,31Zm-.37-3.06a.2.2,0,0,1-.22.22.21.21,0,0,1-.16-.06.2.2,0,0,1-.06-.15c0-.16.07-.23.22-.23A.2.2,0,0,1,36.31,27.92Z"/><path d="M39.51,29.15a.25.25,0,0,1-.07.19.21.21,0,0,1-.18.07.22.22,0,0,1-.14-.05.16.16,0,0,1-.06-.13.16.16,0,0,1,0-.12s0-.05,0-.07,0-.07-.11-.07a.3.3,0,0,0-.24.17,1.75,1.75,0,0,0-.11.74v1s0,.07,0,.08L39,31S39,31,39,31s0,0-.07,0H38c-.05,0-.08,0-.08,0s0,0,.06,0h.07c.12,0,.18,0,.2,0a.58.58,0,0,0,0-.18V29.38c0-.18,0-.29-.08-.31a.57.57,0,0,0-.26-.05s-.06,0-.06,0,0,0,0,0h.25a.94.94,0,0,0,.4-.1l.06,0h0a.9.9,0,0,1,0,.23v.1a.5.5,0,0,1,.45-.33.39.39,0,0,1,.26.09A.33.33,0,0,1,39.51,29.15Z"/><path d="M42.63,30.47a.38.38,0,0,1-.07.18,1.16,1.16,0,0,1-.16.2.73.73,0,0,1-.56.22,1,1,0,0,1-.74-.32,1.11,1.11,0,0,1-.3-.79,1.2,1.2,0,0,1,.28-.82.91.91,0,0,1,.71-.33.82.82,0,0,1,.58.2.7.7,0,0,1,.25.52,1.66,1.66,0,0,1-.41,0h-.35l-.59,0a1.67,1.67,0,0,0,0,.31,1.28,1.28,0,0,0,.19.76.6.6,0,0,0,.53.27.48.48,0,0,0,.31-.09,1,1,0,0,0,.26-.34.05.05,0,0,1,.05,0S42.63,30.45,42.63,30.47Zm-.42-1c0-.39-.16-.59-.43-.59s-.43.2-.49.59Z"/><path d="M45.84,29.31a.21.21,0,0,1-.23.23.19.19,0,0,1-.21-.21.34.34,0,0,1,.05-.16.15.15,0,0,0,0-.07.18.18,0,0,0-.1-.16.49.49,0,0,0-.25-.06.51.51,0,0,0-.46.25,1.33,1.33,0,0,0-.16.72,1.47,1.47,0,0,0,.17.8.51.51,0,0,0,.47.29.64.64,0,0,0,.37-.13,1.34,1.34,0,0,0,.19-.23l0,0s.05,0,.05,0-.06.12-.17.24a.78.78,0,0,1-.57.23.92.92,0,0,1-.71-.31,1.12,1.12,0,0,1-.28-.78,1.2,1.2,0,0,1,.3-.84,1,1,0,0,1,.75-.33.9.9,0,0,1,.51.15A.44.44,0,0,1,45.84,29.31Z"/><path d="M48.53,30.72s0,.08-.13.16a.69.69,0,0,1-.5.19.58.58,0,0,1-.41-.14.79.79,0,0,1-.08-.46V29a.06.06,0,0,0,0-.06h-.19c-.07,0-.1,0-.1,0s0,0,0,0a.77.77,0,0,0,.6-.38.07.07,0,0,1,.07,0,0,0,0,0,1,0,0v.11a1.26,1.26,0,0,0,0,.26H48a2.45,2.45,0,0,0,.36,0h0a0,0,0,0,1,0,0c0,.05-.13.07-.4.07h-.2v.91a5.09,5.09,0,0,0,0,.87.2.2,0,0,0,.22.17.6.6,0,0,0,.37-.18,0,0,0,0,1,0,0S48.53,30.7,48.53,30.72Z"/><path d="M51.78,30a1.17,1.17,0,0,1-.29.8,1,1,0,0,1-.73.32,1,1,0,0,1-.74-.32,1.14,1.14,0,0,1-.3-.8,1.16,1.16,0,0,1,.29-.82.92.92,0,0,1,.73-.32,1,1,0,0,1,.74.32A1.17,1.17,0,0,1,51.78,30Zm-.45,0a1.76,1.76,0,0,0-.17-.84.43.43,0,0,0-.41-.22.47.47,0,0,0-.43.28,1.7,1.7,0,0,0-.16.79,1.49,1.49,0,0,0,.17.77.5.5,0,0,0,.46.28.37.37,0,0,0,.33-.17A1.63,1.63,0,0,0,51.33,29.94Z"/><path d="M54.71,29.15a.29.29,0,0,1-.06.19.24.24,0,0,1-.18.07.25.25,0,0,1-.15-.05.16.16,0,0,1-.06-.13.17.17,0,0,1,.05-.12s0-.05,0-.07,0-.07-.11-.07a.27.27,0,0,0-.23.17,1.57,1.57,0,0,0-.12.74v1a.09.09,0,0,0,0,.08l.26,0a0,0,0,0,1,.05,0s0,0-.06,0h-1s-.07,0-.07,0,0,0,.06,0h.07c.11,0,.17,0,.19,0a.58.58,0,0,0,0-.18V29.38c0-.18,0-.29-.08-.31a.52.52,0,0,0-.25-.05s-.06,0-.06,0,0,0,0,0h.24a.91.91,0,0,0,.4-.1l.07,0h0a1.79,1.79,0,0,1,0,.23v.1a.48.48,0,0,1,.44-.33.39.39,0,0,1,.26.09A.33.33,0,0,1,54.71,29.15Z"/><path d="M57.94,28.9s0,0-.12,0a.4.4,0,0,0-.15,0,.1.1,0,0,0-.05.08l0,.09,0,.12c0,.16-.11.38-.2.68-.26.83-.48,1.48-.65,1.94-.1.27-.25.41-.43.41a.34.34,0,0,1-.2-.06A.24.24,0,0,1,56,32a.2.2,0,0,1,.06-.15.21.21,0,0,1,.16-.06.19.19,0,0,1,.19.11s.06.08.08.08.07-.08.13-.24.17-.46.22-.65c-.24-.63-.45-1.19-.62-1.66A2.92,2.92,0,0,0,56,29a.42.42,0,0,0-.16,0c-.08,0-.13,0-.13-.05s0,0,.07,0h1s0,0,0,0-.06,0-.18,0-.15,0-.15,0a1.31,1.31,0,0,0,.1.3c0,.08,0,.16.08.24l.09.24c0,.08.08.24.18.5l.11.28c.31-1,.47-1.5.47-1.55s0-.05,0-.05h-.21a0,0,0,0,1,0,0s0,0,.06,0h.64S57.94,28.87,57.94,28.9Z"/><g class="cls-1"><path d="M20,4.05V18.61c0,2.3.12,3.86,2.24,3.86v.18H11.82v-.18c2.12,0,2.25-1.56,2.25-3.86V11.2H8.22v7.41c0,2.3.12,3.86,2.24,3.86v.18H0v-.18c2.12,0,2.24-1.56,2.24-3.86V4.05C2.24,1.74,2.12.19,0,.19V0H10.46V.19C8.34.19,8.22,1.74,8.22,4.05v6.59h5.85V4.05c0-2.31-.13-3.86-2.25-3.86V0H22.28V.19C20.16.19,20,1.74,20,4.05Z"/><path d="M20.23,22.47c2.11,0,2.24-1.56,2.24-3.86V4.05c0-2.31-.13-3.86-2.24-3.86V0H30.68V.19c-2.12,0-2.24,1.55-2.24,3.86V18.61c0,2.3.12,3.86,2.24,3.86v.18H20.23Z"/><path d="M47.89,0V.19c-1.31.62-2.46,2.89-3.83,6.62L38,23.4h-.25L30.52,4C29.62,1.52,29,.31,27.69.19V0H38.37V.19c-1.93.12-2.49,1.3-1.9,3l4.11,11.45,2.89-8C44.81,3,44.59.75,42.35.19V0Z"/><path d="M62.73,16.24l-.84,6.41H45v-.18c2.12,0,2.24-1.56,2.24-3.86V4.05c0-2.31-.12-3.86-2.24-3.86V0H61.39l.5,5.73H61.7C59.59,1.8,57.91.5,54.42.5H53.24V10.61h.62c3.24,0,4.42-.9,5.29-3.2h.19v7.22h-.19c-.93-2.62-2-3.52-5.29-3.52h-.62v9.61c0,.84.22,1.44,1.24,1.44h.25c3.08,0,5.39-1.06,7.81-5.92Z"/></g></g></g></svg>