<svg xmlns="http://www.w3.org/2000/svg" viewBox="0 0 114.86 59.11"><defs><style>.cls-1{opacity:0.91;}</style></defs><g id="Layer_2" data-name="Layer 2"><g id="Layer_1-2" data-name="Layer 1"><path d="M9.53,55.8a.74.74,0,0,1-.14.32,1.63,1.63,0,0,1-.28.37,1.36,1.36,0,0,1-1,.4,1.77,1.77,0,0,1-1.35-.59,2,2,0,0,1-.55-1.45,2.24,2.24,0,0,1,.52-1.5A1.66,1.66,0,0,1,8,52.74a1.6,1.6,0,0,1,1.08.38,1.29,1.29,0,0,1,.45,1,4.22,4.22,0,0,1-.76,0H8.12L7,54.14a3.88,3.88,0,0,0,0,.57,2.4,2.4,0,0,0,.35,1.39,1.12,1.12,0,0,0,1,.49.9.9,0,0,0,.57-.16,2,2,0,0,0,.47-.62c0-.05.06-.08.1-.08A.06.06,0,0,1,9.53,55.8ZM8.75,54q0-1.08-.78-1.08c-.48,0-.78.36-.91,1.08Z"/><path d="M18.17,56.73s-.05.07-.15.07H16.4q-.12,0-.12-.06c0-.05,0-.07.1-.07h.29c.09,0,.15,0,.16-.06a1.44,1.44,0,0,0,0-.38V54a1.48,1.48,0,0,0-.13-.74.52.52,0,0,0-.47-.23.79.79,0,0,0-.44.14.81.81,0,0,0-.28.36,8.33,8.33,0,0,0,0,1v2c0,.08.07.11.16.11h.26c.08,0,.12,0,.12.07s0,.06-.14.06H14.28c-.07,0-.11,0-.11-.07s0,0,.06-.06h.36q.13,0,.15-.09V53.94a1.47,1.47,0,0,0-.13-.72.52.52,0,0,0-.46-.2.75.75,0,0,0-.55.21.67.67,0,0,0-.22.52V56.3a.65.65,0,0,0,0,.32s.11.05.26.05h.17c.06,0,.1,0,.1.07s0,.07-.12.07H12.19c-.08,0-.13,0-.13-.07s0-.07.12-.07a1.38,1.38,0,0,0,.4,0,.17.17,0,0,0,.06-.11V54.18a5.38,5.38,0,0,0,0-.79c0-.08-.1-.11-.26-.11h-.3c-.07,0-.11,0-.11-.07a.05.05,0,0,1,0-.06l.29,0a1.73,1.73,0,0,0,.52-.11.72.72,0,0,0,.36-.17c.06-.06.11-.1.14-.1s.05,0,.05.08a3.6,3.6,0,0,1,0,.5,1.23,1.23,0,0,1,1.11-.58.89.89,0,0,1,1,.61,1.21,1.21,0,0,1,1.12-.61.92.92,0,0,1,.91.48,2.13,2.13,0,0,1,.12.84v2.22a.89.89,0,0,0,0,.34.69.69,0,0,0,.28.05h.16C18.14,56.67,18.17,56.69,18.17,56.73Z"/><path d="M24.37,54.78a2.24,2.24,0,0,1-.51,1.5,1.58,1.58,0,0,1-1.27.61,1.12,1.12,0,0,1-.92-.43v2.09a.9.9,0,0,0,0,.24.14.14,0,0,0,.08.06,3,3,0,0,0,.53,0c.08,0,.11,0,.11.08s0,.06-.12.06H20.53c-.18,0-.26,0-.26-.06s0-.09.11-.09h.27c.17,0,.26,0,.28-.12V53.44q0-.25-.24-.24h-.38s-.08,0-.08-.06.07-.09.2-.09a1.64,1.64,0,0,0,.9-.23.42.42,0,0,1,.18-.08.09.09,0,0,1,.09.07,1.85,1.85,0,0,1,0,.41,1.09,1.09,0,0,1,.95-.48,1.67,1.67,0,0,1,1.29.58A2.15,2.15,0,0,1,24.37,54.78Zm-.8,0a3.07,3.07,0,0,0-.21-1.2,1,1,0,0,0-.9-.68.73.73,0,0,0-.54.22.85.85,0,0,0-.25.54c0,.26,0,.82,0,1.67,0,.42,0,.68,0,.77a.51.51,0,0,0,.12.26.78.78,0,0,0,.68.37.77.77,0,0,0,.7-.39A3,3,0,0,0,23.57,54.78Z"/><path d="M28.75,56.72c0,.05,0,.08-.12.08h-.1l-.48,0H26.94c-.09,0-.13,0-.13-.08s0-.06.1-.06h.23c.17,0,.25,0,.25-.11s0-.27,0-.7V51.27a1.46,1.46,0,0,0,0-.33.14.14,0,0,0-.14-.07h-.33c-.08,0-.12,0-.12-.08s.07-.07.22-.07a2.3,2.3,0,0,0,.8-.2l.19-.09.08,0a3.31,3.31,0,0,1,.06.8v5a2.13,2.13,0,0,0,0,.32s0,0,.06.07h.33C28.68,56.65,28.75,56.67,28.75,56.72Z"/><path d="M35,54.83a2.14,2.14,0,0,1-.53,1.47,1.74,1.74,0,0,1-1.33.59,1.82,1.82,0,0,1-1.37-.59,2.11,2.11,0,0,1-.55-1.47,2.13,2.13,0,0,1,.54-1.49,1.72,1.72,0,0,1,1.34-.6,1.74,1.74,0,0,1,1.35.6A2.11,2.11,0,0,1,35,54.83Zm-.82,0a3.14,3.14,0,0,0-.31-1.54.79.79,0,0,0-.76-.4.86.86,0,0,0-.78.52A3,3,0,0,0,32,54.83a2.8,2.8,0,0,0,.3,1.42,1,1,0,0,0,.85.51.67.67,0,0,0,.61-.31A3,3,0,0,0,34.14,54.82Z"/><path d="M41.13,52.91s-.08.07-.22.07a.88.88,0,0,0-.27,0,.27.27,0,0,0-.11.15l-.06.17-.07.22c-.09.28-.21.69-.38,1.24-.48,1.52-.87,2.71-1.18,3.55-.19.51-.46.76-.79.76a.52.52,0,0,1-.36-.12.45.45,0,0,1-.14-.33.39.39,0,0,1,.11-.28.44.44,0,0,1,.3-.11.37.37,0,0,1,.35.2c0,.1.1.16.13.16s.14-.15.25-.45a10.3,10.3,0,0,0,.4-1.18c-.44-1.16-.82-2.18-1.13-3a8.18,8.18,0,0,0-.36-.9.63.63,0,0,0-.3,0q-.24,0-.24-.09c0-.05,0-.08.12-.08l.31,0,.31,0H38l.52,0,.46,0c.06,0,.1,0,.1.08s-.11.07-.34.08-.28,0-.28.09a2.81,2.81,0,0,0,.19.54,4.59,4.59,0,0,0,.15.44l.16.45c0,.13.15.43.32.9l.21.52c.57-1.8.86-2.75.86-2.84s0-.09-.07-.1a2.27,2.27,0,0,0-.38,0c-.06,0-.09,0-.09-.07s0-.07.1-.07l.08,0,.5,0h.25a.78.78,0,0,0,.21,0l.13,0C41.1,52.84,41.13,52.86,41.13,52.91Z"/><path d="M46.62,55.8a.9.9,0,0,1-.14.32,2,2,0,0,1-.28.37,1.38,1.38,0,0,1-1,.4,1.77,1.77,0,0,1-1.35-.59,2,2,0,0,1-.55-1.45,2.19,2.19,0,0,1,.52-1.5,1.63,1.63,0,0,1,1.29-.61,1.57,1.57,0,0,1,1.07.38,1.3,1.3,0,0,1,.46,1,4.26,4.26,0,0,1-.76,0h-.63l-1.08,0a3.88,3.88,0,0,0-.05.57,2.4,2.4,0,0,0,.35,1.39,1.11,1.11,0,0,0,1,.49.93.93,0,0,0,.58-.16,2.18,2.18,0,0,0,.47-.62.11.11,0,0,1,.1-.08A.06.06,0,0,1,46.62,55.8ZM45.84,54q0-1.08-.78-1.08c-.48,0-.79.36-.91,1.08Z"/><path d="M52.56,55.8a.74.74,0,0,1-.14.32,1.63,1.63,0,0,1-.28.37,1.36,1.36,0,0,1-1,.4,1.77,1.77,0,0,1-1.36-.59,2.05,2.05,0,0,1-.54-1.45,2.24,2.24,0,0,1,.51-1.5,1.66,1.66,0,0,1,1.3-.61,1.59,1.59,0,0,1,1.07.38,1.3,1.3,0,0,1,.46,1,4.38,4.38,0,0,1-.77,0h-.63l-1.08,0a3.88,3.88,0,0,0,0,.57,2.4,2.4,0,0,0,.35,1.39,1.12,1.12,0,0,0,1,.49.9.9,0,0,0,.57-.16,1.87,1.87,0,0,0,.47-.62c0-.05.06-.08.1-.08A.06.06,0,0,1,52.56,55.8ZM51.78,54c0-.72-.28-1.08-.77-1.08s-.79.36-.91,1.08Z"/><path d="M62.92,56.6s0,.06-.13.06h-.27a1.42,1.42,0,0,0-.74.18l-.16.07s-.08,0-.08-.11v-.28a1.25,1.25,0,0,1-.92.39,1.54,1.54,0,0,1-1.24-.59,2.21,2.21,0,0,1-.49-1.49,2.25,2.25,0,0,1,.49-1.51,1.6,1.6,0,0,1,1.28-.58,1,1,0,0,1,.92.45V51.78a3.42,3.42,0,0,0-.06-.85c0-.09-.09-.13-.16-.12l-.31,0c-.08,0-.12,0-.12-.08s0-.08.1-.08h.32a2,2,0,0,0,.82-.25l.07,0c.06,0,.09.07.09.22v3.55q0,2.13,0,2.28s.15.07.42.07C62.88,56.53,62.92,56.55,62.92,56.6Zm-1.33-2.26a2,2,0,0,0-.19-1.11.77.77,0,0,0-.62-.31.88.88,0,0,0-.78.51,2.76,2.76,0,0,0-.29,1.35A3.45,3.45,0,0,0,60,56.17a1,1,0,0,0,.32.4.74.74,0,0,0,.43.16.85.85,0,0,0,.51-.17.74.74,0,0,0,.29-.4A11.31,11.31,0,0,0,61.59,54.34Z"/><path d="M67.15,56.73c0,.05-.05.08-.15.08l-.22,0-.45,0H65.4a.21.21,0,0,1-.11,0c-.07,0-.1,0-.1-.07s.06-.1.18-.1.35,0,.37,0,0-.15,0-.37V53.49a1.33,1.33,0,0,0,0-.26s0,0-.11,0h-.35c-.07,0-.1,0-.1-.07s0-.06.15-.06a2.14,2.14,0,0,0,1-.28l.09-.05a1.12,1.12,0,0,1,.07.49v2.89a2.93,2.93,0,0,0,0,.43.11.11,0,0,0,.09.08,2,2,0,0,0,.4,0C67.11,56.65,67.15,56.68,67.15,56.73Zm-.67-5.62a.37.37,0,0,1-.41.41.39.39,0,0,1-.28-.11.38.38,0,0,1-.12-.28c0-.28.13-.42.4-.42A.36.36,0,0,1,66.48,51.11Z"/><path d="M72.34,53.38a.5.5,0,0,1-.12.34.44.44,0,0,1-.33.13.4.4,0,0,1-.27-.09.32.32,0,0,1-.11-.24.35.35,0,0,1,.08-.22q.09-.09.09-.12c0-.09-.07-.14-.2-.14s-.31.11-.44.32a3.17,3.17,0,0,0-.2,1.36v1.77c0,.07,0,.12.07.14a2.93,2.93,0,0,0,.47,0c.06,0,.1,0,.1.07s0,.07-.12.07H69.61c-.09,0-.14,0-.14-.06s0-.05.12-.05h.12c.21,0,.33,0,.36-.07a1.67,1.67,0,0,0,0-.34V53.79q0-.49-.15-.57a1.21,1.21,0,0,0-.47-.09c-.07,0-.11,0-.11-.06s0-.06.09-.06h.45a1.73,1.73,0,0,0,.74-.19l.12-.05.07,0a3.22,3.22,0,0,1,0,.43v.19a.92.92,0,0,1,.82-.62.64.64,0,0,1,.47.18A.56.56,0,0,1,72.34,53.38Z"/><path d="M78.06,55.8a.9.9,0,0,1-.14.32,2,2,0,0,1-.28.37,1.38,1.38,0,0,1-1,.4,1.77,1.77,0,0,1-1.35-.59,2,2,0,0,1-.55-1.45,2.19,2.19,0,0,1,.52-1.5,1.64,1.64,0,0,1,1.29-.61,1.56,1.56,0,0,1,1.07.38,1.3,1.3,0,0,1,.46,1,4.22,4.22,0,0,1-.76,0h-.63l-1.08,0a3.88,3.88,0,0,0,0,.57,2.4,2.4,0,0,0,.35,1.39,1.11,1.11,0,0,0,1,.49.92.92,0,0,0,.57-.16,2,2,0,0,0,.47-.62.11.11,0,0,1,.1-.08A.06.06,0,0,1,78.06,55.8ZM77.28,54c0-.72-.28-1.08-.78-1.08s-.79.36-.91,1.08Z"/><path d="M83.92,53.67c0,.28-.13.42-.4.42s-.4-.13-.4-.38a.79.79,0,0,1,.09-.3.28.28,0,0,0,0-.13.34.34,0,0,0-.19-.29.81.81,0,0,0-.46-.12,1,1,0,0,0-.84.47,2.52,2.52,0,0,0-.29,1.31,3,3,0,0,0,.3,1.48,1,1,0,0,0,.87.51,1,1,0,0,0,.67-.23,2,2,0,0,0,.35-.41.15.15,0,0,1,.08,0c.06,0,.09,0,.09.07s-.1.23-.31.44a1.36,1.36,0,0,1-1,.43,1.71,1.71,0,0,1-1.31-.57,2.07,2.07,0,0,1-.51-1.43,2.24,2.24,0,0,1,.54-1.54,1.81,1.81,0,0,1,1.38-.61,1.65,1.65,0,0,1,.94.28A.79.79,0,0,1,83.92,53.67Z"/><path d="M88.85,56.25s-.07.15-.22.29a1.35,1.35,0,0,1-.92.35,1.06,1.06,0,0,1-.75-.25,1.42,1.42,0,0,1-.15-.85V53.11a.09.09,0,0,0-.09-.1h-.35c-.13,0-.19,0-.19-.06s0-.06.09-.07a1.39,1.39,0,0,0,1.1-.69.15.15,0,0,1,.13-.09s.06,0,.06.07v.19a1.6,1.6,0,0,0,0,.48.91.91,0,0,0,.27,0,3.17,3.17,0,0,0,.66,0h.06s.07,0,.07.08-.24.12-.73.12h-.37v1.67a9.78,9.78,0,0,0,.07,1.58.37.37,0,0,0,.41.32,1.07,1.07,0,0,0,.67-.33.1.1,0,0,1,.08,0S88.85,56.22,88.85,56.25Z"/><path d="M94.8,54.83a2.09,2.09,0,0,1-.53,1.47,1.7,1.7,0,0,1-1.32.59,1.81,1.81,0,0,1-1.37-.59A2.06,2.06,0,0,1,91,54.83a2.13,2.13,0,0,1,.54-1.49,1.7,1.7,0,0,1,1.33-.6,1.76,1.76,0,0,1,1.36.6A2.15,2.15,0,0,1,94.8,54.83Zm-.82,0a3.26,3.26,0,0,0-.3-1.54.79.79,0,0,0-.76-.4.86.86,0,0,0-.79.52,3,3,0,0,0-.28,1.43,2.8,2.8,0,0,0,.3,1.42.93.93,0,0,0,.84.51.69.69,0,0,0,.62-.31A3.05,3.05,0,0,0,94,54.82Z"/><path d="M100.18,53.38a.47.47,0,0,1-.13.34.41.41,0,0,1-.32.13.4.4,0,0,1-.27-.09.32.32,0,0,1-.11-.24.35.35,0,0,1,.08-.22c.06-.06.08-.1.08-.12s-.06-.14-.19-.14a.53.53,0,0,0-.44.32,3.17,3.17,0,0,0-.2,1.36v1.77c0,.07,0,.12.07.14a2.82,2.82,0,0,0,.47,0c.06,0,.1,0,.1.07s0,.07-.12.07H97.45c-.1,0-.14,0-.14-.06s0-.05.11-.05h.13c.2,0,.32,0,.36-.07a1.67,1.67,0,0,0,0-.34V53.79q0-.49-.15-.57a1.25,1.25,0,0,0-.47-.09c-.08,0-.11,0-.11-.06s0-.06.09-.06h.45a1.73,1.73,0,0,0,.74-.19l.12-.05.07,0a3.22,3.22,0,0,1,0,.43v.19a.91.91,0,0,1,.81-.62.66.66,0,0,1,.48.18A.56.56,0,0,1,100.18,53.38Z"/><path d="M106.09,52.91s-.07.07-.22.07a.94.94,0,0,0-.27,0,.27.27,0,0,0-.11.15l-.06.17-.07.22c-.09.28-.21.69-.38,1.24-.47,1.52-.87,2.71-1.18,3.55-.19.51-.46.76-.79.76a.54.54,0,0,1-.36-.12.45.45,0,0,1-.14-.33.36.36,0,0,1,.12-.28.4.4,0,0,1,.29-.11.37.37,0,0,1,.35.2c0,.1.1.16.13.16s.14-.15.26-.45a12.41,12.41,0,0,0,.39-1.18c-.44-1.16-.82-2.18-1.13-3a8.18,8.18,0,0,0-.36-.9.6.6,0,0,0-.29,0q-.24,0-.24-.09c0-.05,0-.08.11-.08l.31,0,.32,0h.16l.52,0,.46,0c.07,0,.1,0,.1.08s-.11.07-.34.08-.27,0-.27.09a3.23,3.23,0,0,0,.18.54l.15.44.16.45c0,.13.15.43.32.9.07.14.13.32.21.52.57-1.8.86-2.75.86-2.84s0-.09-.07-.1a2.27,2.27,0,0,0-.38,0c-.06,0-.09,0-.09-.07s0-.07.11-.07l.07,0,.5,0h.25l.22,0,.12,0S106.09,52.86,106.09,52.91Z"/><g class="cls-1"><path d="M36.69,7.41V34.07c0,4.22.23,7.07,4.1,7.07v.34H21.65v-.34c3.88,0,4.1-2.85,4.1-7.07V20.51H15V34.07c0,4.22.23,7.07,4.1,7.07v.34H0v-.34c3.87,0,4.1-2.85,4.1-7.07V7.41C4.1,3.19,3.87.34,0,.34V0H19.14V.34C15.27.34,15,3.19,15,7.41V19.49H25.75V7.41c0-4.22-.22-7.07-4.1-7.07V0H40.79V.34C36.92.34,36.69,3.19,36.69,7.41Z"/><path d="M37,41.14c3.88,0,4.1-2.85,4.1-7.07V7.41c0-4.22-.22-7.07-4.1-7.07V0H56.18V.34c-3.88,0-4.11,2.85-4.11,7.07V34.07c0,4.22.23,7.07,4.11,7.07v.34H37Z"/><path d="M87.68,0V.34c-2.39,1.14-4.5,5.3-7,12.14L69.51,42.85h-.46L55.89,7.29C54.24,2.79,53,.57,50.7.34V0H70.25V.34c-3.54.23-4.56,2.39-3.48,5.41l7.52,21,5.3-14.58c2.45-6.67,2-10.77-2-11.8V0Z"/><path d="M114.86,29.74l-1.54,11.74H82.44v-.34c3.87,0,4.1-2.85,4.1-7.07V7.41c0-4.22-.23-7.07-4.1-7.07V0h30l.91,10.48H113C109.1,3.3,106,.91,99.64.91H97.48V19.43h1.14c5.92,0,8.09-1.65,9.69-5.87h.34V26.78h-.34c-1.71-4.79-3.77-6.44-9.69-6.44H97.48V38c0,1.53.4,2.62,2.28,2.62h.45c5.64,0,9.86-1.94,14.31-10.83Z"/></g></g></g></svg>